<?xml version="1.0" encoding="utf-8"?>
<!-- Generator: Adobe Illustrator 16.0.0, SVG Export Plug-In . SVG Version: 6.00 Build 0)  -->
<!DOCTYPE svg PUBLIC "-//W3C//DTD SVG 1.1//EN" "http://www.w3.org/Graphics/SVG/1.1/DTD/svg11.dtd">
<svg version="1.1" id="Layer_1" xmlns="http://www.w3.org/2000/svg" xmlns:xlink="http://www.w3.org/1999/xlink" x="0px" y="0px"
	 width="50px" height="50px" viewBox="0 0 50 50" enable-background="new 0 0 50 50" xml:space="preserve">
<path fill="#FFFFFF" d="M39.666,9H10.333C9.597,9,9,9.597,9,10.333v29.334C9,40.402,9.597,41,10.333,41H26V29h-4v-5h4v-4
	c0-4.133,2.618-6.167,6.304-6.167c1.767,0,3.284,0.132,3.726,0.19v4.32l-2.557,0.001c-2.005,0-2.473,0.953-2.473,2.351V24h5l-1,5h-4
	l0.08,12h8.586C40.402,41,41,40.402,41,39.667V10.333C41,9.597,40.402,9,39.666,9"/>
</svg>
