<?xml version="1.0" encoding="utf-8"?>
<!-- Generator: Adobe Illustrator 16.0.0, SVG Export Plug-In . SVG Version: 6.00 Build 0)  -->
<!DOCTYPE svg PUBLIC "-//W3C//DTD SVG 1.1//EN" "http://www.w3.org/Graphics/SVG/1.1/DTD/svg11.dtd">
<svg version="1.1" id="Layer_1" xmlns="http://www.w3.org/2000/svg" xmlns:xlink="http://www.w3.org/1999/xlink" x="0px" y="0px"
	 width="50px" height="50px" viewBox="0 0 50 50" enable-background="new 0 0 50 50" xml:space="preserve">
<path display="none" fill="#FFFFFF" d="M39.666,9H10.333C9.597,9,9,9.597,9,10.333v29.334C9,40.402,9.597,41,10.333,41H26V29h-4v-5
	h4v-4c0-4.133,2.618-6.167,6.304-6.167c1.767,0,3.284,0.132,3.726,0.19v4.32l-2.557,0.001c-2.005,0-2.473,0.953-2.473,2.351V24h5
	l-1,5h-4l0.08,12h8.586C40.402,41,41,40.402,41,39.667V10.333C41,9.597,40.402,9,39.666,9"/>
<path fill="#FFFFFF" d="M41,15.076c-1.177,0.522-2.443,0.875-3.771,1.034c1.356-0.813,2.397-2.099,2.888-3.632
	c-1.269,0.752-2.675,1.298-4.169,1.593c-1.198-1.276-2.904-2.073-4.793-2.073c-3.625,0-6.564,2.939-6.564,6.565
	c0,0.514,0.058,1.015,0.17,1.496c-5.457-0.274-10.294-2.888-13.532-6.86c-0.565,0.97-0.889,2.098-0.889,3.301
	c0,2.277,1.159,4.287,2.92,5.464c-1.076-0.034-2.088-0.329-2.973-0.821c-0.001,0.028-0.001,0.055-0.001,0.083
	c0,3.181,2.263,5.834,5.267,6.437c-0.551,0.15-1.131,0.23-1.73,0.23c-0.423,0-0.834-0.041-1.235-0.117
	c0.835,2.608,3.26,4.506,6.133,4.559c-2.247,1.762-5.078,2.811-8.154,2.811c-0.53,0-1.052-0.031-1.566-0.091
	c2.905,1.862,6.356,2.948,10.064,2.948c12.077,0,18.679-10.004,18.679-18.678c0-0.285-0.007-0.568-0.019-0.85
	C39.007,17.549,40.12,16.393,41,15.076"/>
</svg>
